<svg xmlns="http://www.w3.org/2000/svg" version="1.1" xmlns:xlink="http://www.w3.org/1999/xlink" width="512" height="512" x="0" y="0" viewBox="0 0 512000 512000" style="enable-background:new 0 0 512 512" xml:space="preserve" fill-rule="evenodd" class=""><g><path fill="#664566" d="M256000 45266c116386 0 210734 94348 210734 210734s-94348 210734-210734 210734S45266 372386 45266 256000 139614 45266 256000 45266zm0-27789c131733 0 238523 106790 238523 238523S387733 494523 256000 494523 17477 387733 17477 256000 124267 17477 256000 17477zm1545 228488c8952 0 16209 7258 16209 16209 0 8953-7258 16209-16209 16209-8953 0-16211-7257-16211-16209s7258-16209 16211-16209zm13365 60364-18911 32457c-21835 33585-52909 63775-100744 54569-24575-4729-49074-23173-59629-45131-9285-19310-10453-44858-71-65209 25495-49967 103131-44652 106949 7432 1290 17591-4877 30654-13636 38867-22480 21076-65189 3804-54734-27598 6468-19420 27933-17816 33567-10344 4672 6200 3141 14798-1752 19739-6758 6823-13465 4007-19445 184 4335 17334 31587 10987 35363-5485 3967-17315-10359-31784-26022-32451-36868-1569-50470 49108-27728 71795 37408 37317 94637 14362 102436-41143 2098-14929-2870-39914-10233-48984-3729-11228-20596-35294-27507-49943-27406-58093 11066-136023 86400-126618 21982 2744 39808 15478 48683 27904 11213 15699 18087 36273 9695 58618-20169 53700-82591 41596-91066 11363-1898-2425-2044-3099-3041-6741-720-2635-1270-5008-1358-7696-183-5570 1519-12289 3860-15365 7502-23624 44413-30046 52733-5085 9276 27833-26571 34176-27886 12309-478-7954 3772-10083 8003-14105-14117-7077-33242 30886-1241 39418 46686 12446 51513-73755-10030-72997-25246 312-37609 14128-46380 31410-1011 2476-1238 3050-1985 5450-1329 4276 250 2894-2747 5832-45 11476-6961 22714 8517 47655 3465 5584 9245 12777 13358 16065l17486 12126c405 116 1003-190 1219 339 207 506 881 259 1141 400 2753 1493 1240 613 2549 1756 5517-40 11445 2407 17482 3146 6911 844 13196 578 19958 1011 37465-769 73953 1865 101449 19917 24783 16270 36697 44460 30605 85003-361 1283-669 2818-1067 4030-1279 3896-8 1643-1873 4222l-99 1226c-1253 5062-3034 9888-5581 15093-1341 2739-1948 4272-4004 6633l-5549 5518-1972 2470c467 1873 814 1413-1131 1306-4877 9174-27315 19994-41617 21584-20159 2242-38022-4733-50173-13943-28955-21951-24940-66242 2413-85551 13858-9781 35216-7769 47876 1117 21175 14864 16010 58601-14022 56999-9152-489-18138-6086-19815-13799-4371-20097 21227-27098 26920-10423 377 1102 478 1847 811 2750l739 1796c117 265 354 665 455 876 103 215 287 606 483 875 1990-7152 4036-11176-919-18426-8096-11845-40414-12200-42007 18031-1527 28974 38199 38715 60480 24788 17910-11197 29500-44625 14993-69206-11098-18808-36313-32363-66805-28467-15378 5665-18417 5539-31064 14734-9493 6901-15940 14395-22779 25892z" opacity="1" data-original="#2b2a29" class=""></path></g></svg>