<svg xmlns="http://www.w3.org/2000/svg" version="1.1" xmlns:xlink="http://www.w3.org/1999/xlink" width="512" height="512" x="0" y="0" viewBox="0 0 512000 512000" style="enable-background:new 0 0 512 512" xml:space="preserve" fill-rule="evenodd" class=""><g><path fill="#bfb082" d="M256000 24926c127619 0 231074 103455 231074 231074S383619 487074 256000 487074 24926 383619 24926 256000 128381 24926 256000 24926zm-72157 387837c-1133-8141-4892-14789-5903-25317-12697-1152-15298 2517-28826-3630-29024-13187-31231-51971-13545-69964 11432-11630 22773-18491 31149-39064 3953-9711 5154-20092 2376-30822-2062-7965-7498-19004-12091-23620l-34156 24c2092 8857 36206 23828 12357 56550-6630 9096-13729 13413-21105 21615-30125 33496-19213 93596 29992 111696 13506 4968 25015 4328 39752 2531zM89108 241775l1024-2465c1911-2222 3522-6516 5314-9220 1101-1658 2267-3112 3724-4461 2666-2464 2428-1519 3650-4020 2094-1214 3689-1767 4957-2479 2216-1244 2571-1972 4343-2820 1372-658 9185-3391 10088-3648 25818-2053 39509 2464 62048-8845 13570-6808 26294-23701 26817-43446-4531-4424-8290-7831-12327-12180-2494-2686-8565-10165-12665-10674-365 21030-638 36612-16067 43914-25797 12208-57653-9703-92413 28824-10535 11676-14941 25498-17121 45691-9 1475 193 4261 293 6110 71 1331 5 2763 360 4094 919 3436-35 1384 1623 2851 806 18262 19174 41925 32360 46527 2032-8786 8069-15174 12392-21928l-1649-1754c-149-138-399-369-565-516-6519-5867-9480-7271-14209-17363-5562-11871-3859-19285-1977-32190zm287843 35547c-7722-13735-12026-17995-4761-35789 1870-2510 3429-4424 4517-7042l9571-10482c4357-1997 11274-9783 14718-14306 4002-5256 8329-13576 10394-20206 5278-16944 4261-36340-2976-51199-6056-12428-16813-25048-29332-31797-18293-9860-28678-9654-50594-7554 823 7304 4519 16193 5864 25648 18099-1261 28590 846 39553 10462 7930 6954 16005 20769 14248 37472-1645 15628-10391 24549-19311 32469-3861 3425-21480 22080-22084 30272-2856 2955-4059 9909-4701 14297-2974 20324 7600 31667 11961 42414 4552 347 32354-131 35955-765-1453-3672-1183-2360-5019-5491l-4884-4811-3118-3592zm10886 56534c-562 3952 900 9840 233 15625-4028 34891-46766 51011-73540 26897-3035-2734-5000-5610-8219-9089-23955-25889-55538-36034-85820-12669l-34 34305c4070-2046 3667-2702 6308-5382 2187-2220 3626-3080 6104-5075 4300-3462 7628-6054 12892-8395 22250-9895 39131 14705 53934 28270 6726 6162 18046 11771 29379 14267 28233 6217 51010-5119 65325-19339 15724-15622 22929-35775 18717-65398-9027 1892-14127 4789-25277 5983zM196538 94264c3120 2496 7938 4253 11320 6177 3738 2128 6948 4968 10279 7029 4058-2584 8730-11435 18744-15901 28106-12530 58151 4644 62640 32354 2424 14961-3654 39617 8668 60423 7407 12507 23411 26515 43420 26456 4-1 21885-20314 23133-24706-30222-1427-46302-1913-48551-34882-1597-23415 4892-40864-17598-66888-35131-40650-98190-21387-112055 9939zm-59273 231239c19469 2906 45326-5326 48593 34811 1198 14706-1807 24308 2437 39358 9065 32156 40035 54522 75725 50653 24168-2621 43202-17902 51692-32649l-22179-13480c-6904 7326-9214 12539-22354 17588-20135 7739-45605-1952-54917-22586-6410-14204-3098-20686-3809-36445-1186-26222-10436-45819-27363-54471-4648-2378-9256-4273-14667-5837-8490-2453-9386-3276-14156 2643-4923 6110-16773 14569-19004 20417zm267441-107163c2607 2797 6372 5034 9060 8126 2218 2551 5138 6889 6870 10462 12358 25473-3112 57646-32800 62354-16148 2562-35551-4152-60497 8713-12056 6216-26243 24227-26177 43573 3737 3557 8232 7361 12335 11601 3749 3874 6383 9183 12648 11294-2006-67850 39891-41008 74594-51058 44190-12797 65708-66418 39223-105786-4293-6380-14023-18462-22128-21046l-13129 21767zM99946 183872c9220-2713 13735-5050 24637-5998-757-12484-1126-20692 4208-30456 14733-26972 49218-31289 69506-10967 17411 17440 38208 40204 69343 32614 11092-2704 16860-8678 24444-11330-283-8156 1266-28889-1607-34481l-11441 10458c-3133 2577-8337 6098-13142 8164-31062 13350-41545-34558-83962-43040-36560-7309-69975 14178-80890 46386-3475 10252-6522 28987-1094 38651zM256000 41798c118301 0 214202 95901 214202 214202s-95901 214202-214202 214202S41798 374301 41798 256000 137699 41798 256000 41798z" opacity="1" data-original="#2b2a29" class=""></path></g></svg>